PathFileType	4	(X/Y/Z)	C:/Users/beibeiliu/ov580/test_trc/User1\sequence.38_training_dense_right.trc
DataRate	CameraRate	NumFrames	NumMarkers	Units	OrigDataRate	OrigDataStartFrame	OrigNumFrames
120	120	16	19	mm	120	313	500
Frame#	Time	ThumbCMC			ThumbMCP			ThumbIP			ThumbTip			IndexMCP			IndexPIP			IndexTip			MiddleMCP			MiddlePIP			MiddleTip			RingMCP			RingPIP			RingTip			PinkyMCP			PinkyPIP			PinkyTip			BackHand1			BackHand2			BackHand3	
		X0	Y0	Z0	X1	Y1	Z1	X2	Y2	Z2	X3	Y3	Z3	X4	Y4	Z4	X5	Y5	Z5	X6	Y6	Z6	X7	Y7	Z7	X8	Y8	Z8	X9	Y9	Z9	X10	Y10	Z10	X11	Y11	Z11	X12	Y12	Z12	X13	Y13	Z13	X14	Y14	Z14	X15	Y15	Z15	X16	Y16	Z16	X17	Y17	Z17	X18	Y18	Z18	
312	2.6	251.849	-20.0557	57.8653	237.305	-23.2118	20.8045	232.511	-33.2955	-8.44716	223.206	-53.5196	-26.1872	296.873	-69.8622	2.20522	290.901	-81.4779	-25.7162	273.791	-81.4383	-47.5995	286.718	-96.7323	5.61989	277.27	-101.498	-28.2138	249.923	-87.8943	-46.7185	271.197	-116.312	16.8876	266.963	-122.87	-13.1144	247.545	-112.907	-38.7395	248.163	-121.078	35.8681	249.818	-134.934	16.3995	249.869	-148.123	-9.87503	258.974	-90.7886	72.8322	251.456	-75.0638	97.0917	276.859	-53.9397	75.1998	
313	2.60833	251.794	-22.5423	56.8562	235.663	-21.4113	19.9292	232.21	-32.5132	-7.45786	222.738	-51.2534	-28.7776	294.555	-70.3933	6.21724	293.698	-77.6284	-25.6085	275.711	-80.6679	-48.1546	284.173	-99.2773	5.74169	273.196	-100.028	-27.1007	245.634	-83.3935	-44.2951	270.735	-115.092	21.4598	268.285	-123.439	-12.0256	249.13	-114.063	-35.5361	249.365	-121.817	37.5915	254.731	-135.689	17.4309	255.901	-149.457	-3.2706	261.235	-88.4868	69.006	247.666	-77.2752	102.689	273.488	-54.7997	76.8698	
314	2.61667	249.414	-17.1798	59.2702	234.186	-23.1168	23.4926	233.258	-37.6156	-6.88355	224.639	-53.3117	-26.8554	296.943	-68.1192	3.96806	295.341	-76.5447	-22.6628	275.196	-80.1685	-46.9365	285.432	-94.668	5.11957	271.32	-94.6654	-29.7312	241.083	-82.8731	-39.1144	273.4	-113.178	19.0221	271.419	-118.867	-12.2538	250.315	-109.789	-37.1338	251.983	-117.275	38.9882	257.291	-134.218	20.5413	264.373	-145.921	-2.35568	260.485	-90.6762	70.4022	250.931	-73.9776	98.9112	273.673	-51.3324	76.8077	
315	2.625	247.225	-19.396	61.8039	233.15	-23.2368	23.8875	231.743	-36.6105	-3.84426	223.541	-51.196	-27.7632	295.226	-66.5049	6.38301	293.47	-77.6619	-19.874	274.915	-78.2641	-50.2599	285.742	-90.4849	6.11712	269.269	-94.2525	-28.076	241.079	-76.5131	-37.4411	275.046	-113.615	17.4102	272.048	-118.605	-11.2839	250.909	-108.99	-37.2648	253.829	-121.54	37.9283	258.584	-133.941	20.2284	263.909	-150.236	-2.62062	262.921	-88.4793	70.8328	249.476	-74.8322	101.222	274.933	-52.4903	77.4161	
316	2.63333	246.903	-18.4135	61.5994	234.245	-26.8971	23.3604	231.027	-34.5632	-2.828	224.588	-53.3858	-26.5935	297.025	-63.4628	3.35198	294.262	-73.4854	-24.9354	274.899	-79.0716	-47.9045	285.947	-87.9912	3.25847	271.539	-92.4044	-25.9333	236.061	-77.4957	-34.6024	276.111	-109.57	17.2708	271.435	-119.371	-13.2296	247.739	-112.609	-36.718	254.69	-121.125	37.3438	258.9	-133.64	24.514	265.602	-151.176	1.18945	261.379	-86.227	74.8362	250.704	-74.7574	105.052	275.187	-49.4068	76.6706	
317	2.64167	246.488	-20.4649	58.6789	234.25	-24.8301	19.4013	232.123	-37.7147	-8.42203	226.798	-56.6079	-22.1338	296.825	-63.2907	4.63248	294.95	-73.7767	-21.334	277.772	-77.0982	-45.8243	285.044	-90.308	1.21506	266.409	-92.1152	-26.6873	232.969	-75.577	-32.599	276.826	-105.344	20.1309	270.664	-118.424	-14.9386	249.133	-109.767	-36.9318	254.213	-120.398	39.9999	259.729	-133.938	23.314	267.826	-145.901	0.873429	264.165	-89.4988	72.0142	252.231	-76.9694	103.022	273.321	-50.243	75.6677	
318	2.65	247.927	-20.578	57.9474	232.344	-24.5327	23.2842	231.794	-39.5412	-5.98864	225.135	-55.8943	-22.6653	295.632	-63.2705	5.49314	292.483	-74.2207	-23.7621	274.806	-77.6839	-48.8939	284.054	-89.059	2.00239	269.063	-87.6867	-26.7677	231.535	-73.5101	-33.7792	276.064	-107.156	20.0361	273.197	-114.737	-15.9084	251.461	-107.574	-38.1064	254.975	-120.495	39.922	258.931	-136.111	25.0646	269.318	-146.281	1.65156	264.593	-83.7572	71.9648	252.314	-74.6657	100.496	272.504	-52.2738	76.5431	
319	2.65833	243.6	-17.0638	60.6557	231.714	-26.0651	21.8363	230.085	-37.7619	-5.96989	222.444	-54.2631	-25.4357	293.862	-60.8372	7.32908	293.257	-70.4026	-21.2777	276.252	-72.0365	-50.7974	285.11	-83.2553	3.457	266.562	-85.1758	-29.0901	235.309	-73.618	-35.2165	280.284	-104.804	15.6088	273.797	-116.623	-13.4651	250.323	-109.537	-36.8736	255.251	-117.52	40.7031	261.388	-133.247	25.1003	271.886	-145.106	4.98767	265.261	-83.7042	71.2674	251.513	-75.2753	103.639	271.651	-49.3948	77.6198	
320	2.66667	245.972	-18.1986	56.6397	230.282	-24.8106	22.429	228.349	-38.3995	-4.15625	222.807	-55.1517	-25.0125	293.995	-60.2025	4.92232	294.087	-66.5939	-25.3093	276.169	-71.9565	-49.1507	285.781	-83.2061	-0.662559	269.25	-85.0586	-28.644	233.548	-72.8695	-35.1205	279.47	-107.237	17.0878	274.019	-115.983	-14.1683	252.632	-109.715	-37.2181	258.778	-114.935	39.7727	264.388	-130.644	24.7995	274.773	-147.074	3.54696	265.642	-81.495	71.1526	251.455	-73.2847	101.848	271.822	-45.5099	78.7999	
321	2.675	241.614	-16.4542	59.0737	228.421	-24.0184	22.8813	226.831	-35.9267	-6.3063	222.516	-56.6439	-25.9959	293.426	-55.7694	4.46749	290.455	-67.172	-27.3435	274.208	-69.6867	-49.2969	284.89	-85.545	0.111417	267.491	-86.9657	-27.4479	231.972	-76.1762	-34.3342	281.38	-100.592	16.8732	276.579	-113.112	-15.1906	258.015	-107.772	-34.9328	261.418	-117.617	36.5617	266.215	-132.296	23.7674	277.189	-145.263	2.19789	267.791	-81.3047	72.4489	255.767	-72.5589	101.068	271.595	-48.4996	76.6203	
322	2.68333	241.92	-16.2778	56.7176	228.727	-26.2984	22.8905	226.471	-36.267	-6.12787	222.359	-53.1335	-22.5254	292.013	-54.6375	5.46249	291.145	-63.1639	-27.6843	272.034	-70.8651	-47.9566	287.197	-79.4724	-0.679231	270.145	-83.0447	-30.0875	232.633	-72.6094	-36.96	282.953	-101.904	14.9842	277.234	-110.463	-17.0382	256.335	-106.365	-37.8232	261.737	-119.269	38.7999	268.327	-128.599	23.6698	277.044	-147.018	1.31277	267.813	-84.436	71.4741	256.627	-74.1523	99.9833	269.335	-46.5181	78.853	
323	2.69167	239.131	-16.4039	58.7416	227.827	-25.4271	21.7457	224.457	-33.9868	-1.78978	220.766	-50.6506	-26.0978	293.264	-51.8413	2.74307	289.846	-62.865	-27.1435	269.824	-67.4037	-51.1112	288.778	-79.0953	3.59131	271.767	-80.8726	-30.7555	239.402	-74.8752	-38.6885	284.091	-99.1768	18.8105	281.446	-105.765	-16.3377	259.479	-107.825	-35.3526	264.142	-117.072	39.395	272.742	-128.119	21.8124	280.766	-144.259	1.0575	269.662	-77.7345	71.0224	257.699	-70.169	99.5634	270.27	-41.4409	79.7363	
324	2.7	238.502	-16.6019	56.4081	226.122	-22.4269	19.5951	223.838	-33.7009	-4.05192	219.513	-47.2682	-27.5705	292.31	-47.3831	1.91532	289.449	-58.0542	-29.467	268.546	-66.9396	-52.4913	290.12	-75.7739	1.96086	274.851	-80.8488	-31.0142	244.823	-77.4029	-40.9561	286.608	-97.1814	17.4826	283.707	-108.772	-13.0812	262.9	-105.444	-36.0144	268.733	-113.504	37.7674	274.116	-129.029	22.302	280.84	-139.78	2.43281	266.618	-79.9762	71.8964	256.559	-70.498	99.3797	270.084	-41.1834	74.2954	
325	2.70833	235.161	-14.6377	59.9809	223.438	-21.275	21.5697	221.313	-29.5519	-4.68097	218.313	-44.5962	-28.7362	291.455	-44.3837	-0.303277	288.651	-57.6794	-25.6617	268.785	-65.0029	-48.8603	292.138	-72.4491	1.47371	279.92	-79.5712	-29.9134	249.398	-80.3355	-42.9398	288.141	-92.2128	17.598	287.84	-102.685	-11.7803	263.314	-106.134	-35.5925	269.401	-114.719	38.9632	277.972	-127.185	21.3529	283.457	-137.356	-4.28422	269.728	-76.6761	70.3562	256.854	-70.3991	98.6418	269.912	-38.2514	74.9727	
326	2.71667	231.82	-11.9295	60.2666	221.703	-22.1429	22.3318	222.45	-30.0152	-5.51193	218.942	-42.7895	-25.691	290.064	-46.4754	0.310426	287.623	-55.4869	-25.2915	269.163	-60.4594	-48.7875	293.266	-70.6198	6.25283	283.323	-80.5752	-29.3269	254.251	-80.6207	-47.3374	288.6	-90.6756	20.6679	290.367	-104.803	-11.199	269.31	-105.263	-34.7807	272.161	-112.978	39.4485	280.033	-125.369	19.4497	287.448	-134.88	-1.32158	269.29	-72.4892	71.0155	256.235	-69.2191	102.067	266.187	-39.993	79.5531	
327	2.725	231.325	-17.1137	58.5322	216.202	-18.8458	23.8262	217.531	-28.5362	-1.08464	216.939	-42.5832	-27.0013	287.528	-38.8098	1.98901	285.217	-51.6017	-27.105	265.538	-59.3012	-50.8381	294.812	-68.7546	4.46125	289.569	-75.6172	-26.321	257.342	-82.2395	-47.7975	292.127	-89.7883	19.0028	294.754	-96.1956	-11.3315	274	-102.12	-34.8569	274.753	-109.581	39.7513	283.264	-122.463	21.0283	287.883	-130.471	-7.5214	270.662	-74.2453	72.2331	258.099	-63.4342	100.585	266.521	-37.3558	76.6182	
